<?xml version="1.0" encoding="iso-8859-1"?>
<!-- Generator: Adobe Illustrator 19.0.0, SVG Export Plug-In . SVG Version: 6.00 Build 0)  -->
<svg version="1.1" id="Capa_1" xmlns="http://www.w3.org/2000/svg" xmlns:xlink="http://www.w3.org/1999/xlink" x="0px" y="0px"
	 viewBox="0 0 512 512" style="enable-background:new 0 0 512 512;" xml:space="preserve">
<g>
	<g>
		<path d="M256,404.001c-18.748,0-34,15.252-34,34s15.252,34,34,34s34-15.252,34-34S274.748,404.001,256,404.001z M256,452
			c-7.72,0-14-6.28-14-14c0-7.72,6.28-14,14-14c7.72,0,14,6.28,14,14C270,445.721,263.72,452,256,452z"/>
	</g>
</g>
<g>
	<g>
		<path d="M74.001,404.001c-18.748,0-34,15.252-34,34s15.252,34,34,34s34-15.252,34-34S92.749,404.001,74.001,404.001z M74.001,452
			c-7.72,0-14-6.28-14-14c0-7.72,6.28-14,14-14c7.72,0,14,6.28,14,14C88.001,445.721,81.721,452,74.001,452z"/>
	</g>
</g>
<g>
	<g>
		<path d="M437.999,404.001c-18.748,0-34,15.252-34,34s15.252,34,34,34c18.748,0,34-15.252,34-34S456.746,404.001,437.999,404.001z
			 M437.999,452c-7.72,0-14-6.28-14-14c0-7.72,6.28-14,14-14c7.72,0,14,6.28,14,14C451.999,445.721,445.719,452,437.999,452z"/>
	</g>
</g>
<g>
	<g>
		<path d="M106.001,288.998c-5.523,0-10,4.477-10,10v32.131c0,5.523,4.477,10,10,10s10-4.477,10-10v-32.131
			C116.001,293.475,111.524,288.998,106.001,288.998z"/>
	</g>
</g>
<g>
	<g>
		<path d="M148.001,288.998c-5.523,0-10,4.477-10,10v32.131c0,5.523,4.477,10,10,10s10-4.477,10-10v-32.131
			C158.001,293.475,153.524,288.998,148.001,288.998z"/>
	</g>
</g>
<g>
	<g>
		<path d="M190.001,288.998c-5.523,0-10,4.477-10,10v32.131c0,5.523,4.477,10,10,10s10-4.477,10-10v-32.131
			C200,293.475,195.523,288.998,190.001,288.998z"/>
	</g>
</g>
<g>
	<g>
		<path d="M275.937,28c-18.748,0-34,15.252-34,34s15.252,34,34,34s34-15.252,34-34S294.685,28,275.937,28z M275.937,75.999
			c-7.72,0-14-6.28-14-14c0-7.72,6.28-14,14-14c7.72,0,14,6.28,14,14C289.937,69.719,283.657,75.999,275.937,75.999z"/>
	</g>
</g>
<g>
	<g>
		<path d="M303.01,176.599c-1.86-1.87-4.44-2.93-7.07-2.93c-2.63,0-5.21,1.06-7.07,2.93c-1.86,1.86-2.93,4.44-2.93,7.07
			c0,2.63,1.06,5.2,2.93,7.07c1.86,1.86,4.44,2.93,7.07,2.93c2.63,0,5.21-1.07,7.07-2.93c1.86-1.86,2.93-4.44,2.93-7.07
			C305.94,181.029,304.87,178.459,303.01,176.599z"/>
	</g>
</g>
<g>
	<g>
		<path d="M457.998,366.77V256.044c0-5.523-4.477-10-10-10h-39.402v-98.871l40.244-40.244l8.481,15.06
			c1.772,3.146,5.103,5.093,8.713,5.093h35.963c5.523,0,10-4.477,10-10s-4.477-10-10-10h-30.118l-9.316-16.542l9.316-16.541h30.119
			c5.523,0,10-4.477,10-10s-4.477-10-10-10h-35.963c-3.611,0-6.941,1.947-8.713,5.093l-14.276,25.347l-51.521,51.521
			c-1.875,1.875-2.929,4.419-2.929,7.071v103.013h-82.66v-26.046c0-5.523-4.477-10-10-10c-5.523,0-10,4.477-10,10v26.046h-20
			V123.999h20v25.333c0,5.523,4.477,10,10,10c5.523,0,10-4.477,10-10v-25.333h24c16.542,0,30-13.458,30-30V30
			c0-16.542-13.458-30-30-30H221.937c-16.542,0-30,13.458-30,30v64c0,16.542,13.458,30,30,30h24v122.045h-44.754l-36.936-73.061
			c26.051-40.363,21.427-94.916-13.888-130.232c-3.905-3.905-10.238-3.905-14.142,0L103.96,75.008H45.188c-5.523,0-10,4.477-10,10
			v58.772L2.931,176.038c-3.905,3.905-3.905,10.237,0,14.142c19.69,19.69,45.869,30.534,73.714,30.534
			c4.833,0,9.615-0.334,14.323-0.977v26.309H64.002c-5.523,0-10,4.477-10,10V366.77c-31.115,8.749-54,37.358-54,71.23
			C0.002,478.804,33.198,512,74.001,512c40.804,0,73.999-33.196,73.999-73.999c0-21.285-9.046-40.487-23.48-54h80.959
			c-14.434,13.513-23.48,32.715-23.48,54C182.001,478.804,215.196,512,256,512s73.999-33.196,73.999-73.999
			c0-21.285-9.046-40.487-23.48-54h80.959c-14.434,13.513-23.48,32.715-23.48,54c0,40.804,33.196,73.999,73.999,73.999
			s73.999-33.196,73.999-73.999C511.998,404.128,489.113,375.519,457.998,366.77z M221.937,103.999c-5.514,0-10-4.486-10-10V30
			c0-5.514,4.486-10,10-10h107.999c5.514,0,10,4.486,10,10v64c0,5.514-4.486,10-10,10H221.937z M178.774,246.044h-67.806
			c0,0,0-31.094,0-31.094c14.659-5.096,28.095-13.474,39.393-24.771c0.038-0.038,0.075-0.078,0.113-0.116L178.774,246.044z
			 M55.188,95.008h28.772L55.188,123.78V95.008z M76.644,200.712c-19.135,0.001-37.297-6.336-52.088-18.017L142.871,64.381
			c26.021,33.035,23.803,81.199-6.654,111.655C120.304,191.949,99.148,200.712,76.644,200.712z M128.001,438.001
			c0,29.776-24.224,54-54,54s-54-24.224-54-54s24.224-54,54-54S128.001,408.225,128.001,438.001z M310,438.001
			c0,29.776-24.224,54-54,54s-54-24.224-54-54s24.224-54,54-54S310,408.225,310,438.001z M74.001,364.001v-97.957h363.997v97.957
			H74.001z M437.999,492c-29.776,0-54-24.224-54-54s24.224-54,54-54c29.776,0,54,24.224,54,54S467.774,492,437.999,492z"/>
	</g>
</g>
<g>
	<g>
		<path d="M396.332,288.998H295.937c-5.523,0-10,4.477-10,10c0,5.523,4.477,10,10,10h100.395c5.523,0,10-4.477,10-10
			C406.332,293.475,401.855,288.998,396.332,288.998z"/>
	</g>
</g>
<g>
	<g>
		<path d="M263.01,291.928c-1.86-1.86-4.44-2.93-7.07-2.93c-2.64,0-5.21,1.07-7.07,2.93c-1.87,1.86-2.93,4.44-2.93,7.07
			c0,2.63,1.06,5.21,2.93,7.07c1.86,1.86,4.43,2.93,7.07,2.93c2.63,0,5.21-1.07,7.07-2.93c1.86-1.86,2.93-4.44,2.93-7.07
			C265.94,296.368,264.87,293.788,263.01,291.928z"/>
	</g>
</g>
<g>
</g>
<g>
</g>
<g>
</g>
<g>
</g>
<g>
</g>
<g>
</g>
<g>
</g>
<g>
</g>
<g>
</g>
<g>
</g>
<g>
</g>
<g>
</g>
<g>
</g>
<g>
</g>
<g>
</g>
</svg>
